<svg width="32" height="32" viewBox="0 0 22 25" fill="none" xmlns="http://www.w3.org/2000/svg">
<path d="M7.15385 6.55664C9.76923 6.55664 11.9231 8.71045 11.9231 11.3258C11.9231 12.172 11.6923 13.0181 11.2308 13.7873L11 14.2489L11.4615 15.7104C11.6154 16.2489 12 16.6336 12.5385 16.9413C13 17.172 13.3077 17.6336 13.3077 18.1721V18.4797C13.3077 19.0951 12.7692 19.6336 12.1538 19.6336H2.15385C1.53846 19.6336 1 19.0951 1 18.4797V18.1721C1 17.6336 1.30769 17.172 1.76923 16.9413C2.23077 16.7105 2.61539 16.2489 2.84616 15.7104L3.30769 14.2489L3.07692 13.7873C1.69231 11.5566 2.46154 8.55657 4.69231 7.24887C5.46154 6.78733 6.30769 6.55664 7.15385 6.55664Z" stroke="white" stroke-linecap="round" stroke-linejoin="round"/>
<path d="M7.1537 24.2488C8.00337 24.2488 8.69216 23.56 8.69216 22.7103C8.69216 21.8607 8.00337 21.1719 7.1537 21.1719C6.30403 21.1719 5.61523 21.8607 5.61523 22.7103C5.61523 23.56 6.30403 24.2488 7.1537 24.2488Z" stroke="white" stroke-linecap="round" stroke-linejoin="round"/>
<path d="M5.61523 6.5572V5.78797C5.61523 4.94182 6.30754 4.24951 7.1537 4.24951C7.99985 4.24951 8.69216 4.94182 8.69216 5.78797V6.5572" stroke="white" stroke-linecap="round" stroke-linejoin="round"/>
<path fill-rule="evenodd" clip-rule="evenodd" d="M14.5992 14C18.6263 14 21.8909 10.866 21.8909 7C21.8909 3.13401 18.6263 0 14.5992 0C10.5722 0 7.30762 3.13401 7.30762 7C7.30762 10.866 10.5722 14 14.5992 14Z" fill="url(#paint0_linear_1_406)"/>
<path d="M11.726 8.178C11.862 8.07 11.924 8.02 11.912 8.028C12.304 7.704 12.612 7.438 12.836 7.23C13.064 7.022 13.256 6.804 13.412 6.576C13.568 6.348 13.646 6.126 13.646 5.91C13.646 5.746 13.608 5.618 13.532 5.526C13.456 5.434 13.342 5.388 13.19 5.388C13.038 5.388 12.918 5.446 12.83 5.562C12.746 5.674 12.704 5.834 12.704 6.042H11.714C11.722 5.702 11.794 5.418 11.93 5.19C12.07 4.962 12.252 4.794 12.476 4.686C12.704 4.578 12.956 4.524 13.232 4.524C13.708 4.524 14.066 4.646 14.306 4.89C14.55 5.134 14.672 5.452 14.672 5.844C14.672 6.272 14.526 6.67 14.234 7.038C13.942 7.402 13.57 7.758 13.118 8.106H14.738V8.94H11.726V8.178ZM14.7852 8.22V7.392L16.6812 4.68H17.8272V7.332H18.3192V8.22H17.8272V9H16.8012V8.22H14.7852ZM16.8732 5.808L15.8652 7.332H16.8732V5.808Z" fill="white"/>
<defs>
<linearGradient id="paint0_linear_1_406" x1="15.3284" y1="-2.2037" x2="16.0867" y2="22.599" gradientUnits="userSpaceOnUse">
<stop stop-color="#FD749B"/>
<stop offset="1" stop-color="#281AC8"/>
</linearGradient>
</defs>
</svg>
