<svg width="107" height="25" viewBox="0 0 107 25" fill="none" xmlns="http://www.w3.org/2000/svg">
<path d="M35.0146 16.0804C35.0146 15.0325 35.2524 14.0925 35.7278 13.2603C36.2032 12.4179 36.8491 11.7604 37.6656 11.2879C38.4924 10.8153 39.4071 10.579 40.4096 10.579C41.5878 10.579 42.6162 10.8615 43.4947 11.4265C44.3731 11.9916 45.0139 12.7929 45.417 13.8305H43.7272C43.4275 13.1833 42.9934 12.685 42.425 12.3357C41.8669 11.9864 41.1951 11.8118 40.4096 11.8118C39.6551 11.8118 38.9782 11.9864 38.3787 12.3357C37.7793 12.685 37.3091 13.1833 36.968 13.8305C36.6269 14.4674 36.4564 15.2174 36.4564 16.0804C36.4564 16.933 36.6269 17.683 36.968 18.3302C37.3091 18.9672 37.7793 19.4603 38.3787 19.8096C38.9782 20.1589 39.6551 20.3335 40.4096 20.3335C41.1951 20.3335 41.8669 20.164 42.425 19.825C42.9934 19.4757 43.4275 18.9774 43.7272 18.3302H45.417C45.0139 19.3575 44.3731 20.1537 43.4947 20.7188C42.6162 21.2735 41.5878 21.5509 40.4096 21.5509C39.4071 21.5509 38.4924 21.3197 37.6656 20.8574C36.8491 20.3849 36.2032 19.7325 35.7278 18.9004C35.2524 18.0682 35.0146 17.1282 35.0146 16.0804Z" fill="white"/>
<path d="M51.2222 21.5971C50.4264 21.5971 49.7029 21.4173 49.0518 21.0578C48.411 20.6982 47.9046 20.1897 47.5325 19.5322C47.1708 18.8644 46.9899 18.0939 46.9899 17.2207C46.9899 16.3577 47.1759 15.5975 47.548 14.94C47.9304 14.2722 48.4472 13.7637 49.0983 13.4144C49.7494 13.0549 50.478 12.8751 51.2842 12.8751C52.0903 12.8751 52.819 13.0549 53.4701 13.4144C54.1212 13.7637 54.6328 14.2671 55.0048 14.9246C55.3872 15.5821 55.5784 16.3475 55.5784 17.2207C55.5784 18.0939 55.3821 18.8644 54.9893 19.5322C54.6069 20.1897 54.085 20.6982 53.4236 21.0578C52.7621 21.4173 52.0283 21.5971 51.2222 21.5971ZM51.2222 20.3643C51.7286 20.3643 52.204 20.2462 52.6484 20.0099C53.0928 19.7736 53.4494 19.4192 53.7181 18.9466C53.9972 18.474 54.1367 17.8987 54.1367 17.2207C54.1367 16.5426 54.0023 15.9673 53.7336 15.4948C53.4649 15.0222 53.1135 14.6729 52.6794 14.4469C52.2453 14.2106 51.7751 14.0925 51.2687 14.0925C50.7519 14.0925 50.2765 14.2106 49.8424 14.4469C49.4187 14.6729 49.0776 15.0222 48.8192 15.4948C48.5609 15.9673 48.4317 16.5426 48.4317 17.2207C48.4317 17.909 48.5557 18.4894 48.8037 18.962C49.0621 19.4346 49.4032 19.789 49.8269 20.0253C50.2507 20.2513 50.7157 20.3643 51.2222 20.3643Z" fill="white"/>
<path d="M58.1619 11.6423C57.8932 11.6423 57.6659 11.5498 57.4798 11.3649C57.2938 11.18 57.2008 10.954 57.2008 10.6869C57.2008 10.4198 57.2938 10.1937 57.4798 10.0088C57.6659 9.82391 57.8932 9.73145 58.1619 9.73145C58.4203 9.73145 58.6374 9.82391 58.8131 10.0088C58.9991 10.1937 59.0921 10.4198 59.0921 10.6869C59.0921 10.954 58.9991 11.18 58.8131 11.3649C58.6374 11.5498 58.4203 11.6423 58.1619 11.6423ZM58.8441 13.0138V21.4584H57.4333V13.0138H58.8441Z" fill="white"/>
<path d="M65.3877 12.8597C66.4212 12.8597 67.2583 13.173 67.8991 13.7997C68.5399 14.4161 68.8603 15.3099 68.8603 16.481V21.4584H67.4651V16.6813C67.4651 15.8389 67.2532 15.1968 66.8294 14.7551C66.4057 14.3031 65.8269 14.0771 65.0931 14.0771C64.349 14.0771 63.7547 14.3082 63.3103 14.7705C62.8762 15.2328 62.6592 15.9057 62.6592 16.7892V21.4584H61.2485V13.0138H62.6592V14.2157C62.9382 13.7843 63.3155 13.4504 63.7909 13.2141C64.2767 12.9778 64.8089 12.8597 65.3877 12.8597Z" fill="white"/>
<path d="M76.5752 15.9263C76.968 15.9879 77.3245 16.1471 77.6449 16.404C77.9756 16.6608 78.234 16.9793 78.42 17.3594C78.6164 17.7395 78.7146 18.1453 78.7146 18.5768C78.7146 19.1213 78.5751 19.6144 78.296 20.0561C78.017 20.4876 77.6087 20.8318 77.0713 21.0886C76.5442 21.3351 75.9189 21.4584 75.1955 21.4584H71.1648V10.7177H75.0404C75.7742 10.7177 76.3995 10.841 76.9163 11.0875C77.433 11.3238 77.8206 11.6474 78.079 12.0584C78.3374 12.4693 78.4666 12.9316 78.4666 13.4452C78.4666 14.0822 78.2909 14.6113 77.9395 15.0325C77.5984 15.4434 77.1437 15.7413 76.5752 15.9263ZM72.5755 15.3561H74.9474C75.6089 15.3561 76.1205 15.202 76.4822 14.8938C76.8439 14.5856 77.0248 14.1592 77.0248 13.6148C77.0248 13.0703 76.8439 12.6439 76.4822 12.3357C76.1205 12.0275 75.5985 11.8734 74.9164 11.8734H72.5755V15.3561ZM75.0714 20.3027C75.7742 20.3027 76.322 20.1383 76.7147 19.8096C77.1075 19.4808 77.3038 19.0237 77.3038 18.4381C77.3038 17.8422 77.0971 17.3748 76.6837 17.0358C76.2703 16.6865 75.7174 16.5118 75.0249 16.5118H72.5755V20.3027H75.0714Z" fill="white"/>
<path d="M80.1452 17.2053C80.1452 16.3423 80.3209 15.5872 80.6723 14.94C81.0237 14.2825 81.5043 13.774 82.1141 13.4144C82.7342 13.0549 83.4215 12.8751 84.1759 12.8751C84.9201 12.8751 85.566 13.0343 86.1138 13.3528C86.6615 13.6713 87.0698 14.0719 87.3385 14.5548V13.0138H88.7647V21.4584H87.3385V19.8866C87.0594 20.3797 86.6409 20.7907 86.0828 21.1194C85.535 21.4379 84.8942 21.5971 84.1604 21.5971C83.406 21.5971 82.7238 21.4122 82.1141 21.0424C81.5043 20.6725 81.0237 20.1537 80.6723 19.486C80.3209 18.8182 80.1452 18.058 80.1452 17.2053ZM87.3385 17.2207C87.3385 16.5837 87.2093 16.029 86.9509 15.5564C86.6925 15.0838 86.3411 14.7243 85.8967 14.4777C85.4627 14.2209 84.9821 14.0925 84.455 14.0925C83.9279 14.0925 83.4473 14.2157 83.0132 14.4623C82.5791 14.7089 82.2329 15.0684 81.9745 15.541C81.7162 16.0136 81.587 16.5683 81.587 17.2053C81.587 17.8525 81.7162 18.4175 81.9745 18.9004C82.2329 19.3729 82.5791 19.7376 83.0132 19.9945C83.4473 20.241 83.9279 20.3643 84.455 20.3643C84.9821 20.3643 85.4627 20.241 85.8967 19.9945C86.3411 19.7376 86.6925 19.3729 86.9509 18.9004C87.2093 18.4175 87.3385 17.8576 87.3385 17.2207Z" fill="white"/>
<path d="M94.1563 21.5971C93.5052 21.5971 92.9213 21.4892 92.4045 21.2735C91.8877 21.0475 91.4795 20.7393 91.1798 20.3489C90.8801 19.9483 90.7147 19.4911 90.6837 18.9774H92.1409C92.1823 19.3986 92.3787 19.7428 92.7301 20.0099C93.0918 20.277 93.562 20.4106 94.1408 20.4106C94.6782 20.4106 95.102 20.2924 95.412 20.0561C95.7221 19.8198 95.8771 19.5219 95.8771 19.1623C95.8771 18.7925 95.7118 18.5203 95.381 18.3456C95.0503 18.1607 94.5387 17.9809 93.8462 17.8063C93.2158 17.6419 92.699 17.4775 92.296 17.3131C91.9032 17.1385 91.5622 16.8868 91.2728 16.5581C90.9937 16.219 90.8542 15.7773 90.8542 15.2328C90.8542 14.8013 90.9834 14.4058 91.2418 14.0462C91.5002 13.6867 91.8671 13.4042 92.3425 13.1987C92.8179 12.9829 93.3605 12.8751 93.9703 12.8751C94.9108 12.8751 95.6704 13.1114 96.2492 13.5839C96.8279 14.0565 97.138 14.7037 97.1793 15.5256H95.7686C95.7376 15.0838 95.5567 14.7294 95.226 14.4623C94.9056 14.1952 94.4715 14.0616 93.9238 14.0616C93.4173 14.0616 93.0143 14.1695 92.7145 14.3853C92.4148 14.601 92.265 14.8835 92.265 15.2328C92.265 15.5102 92.3528 15.7413 92.5285 15.9263C92.7145 16.1009 92.9419 16.2447 93.2106 16.3577C93.4897 16.4605 93.8721 16.5786 94.3578 16.7122C94.9676 16.8765 95.4637 17.0409 95.8461 17.2053C96.2285 17.3594 96.5541 17.5957 96.8228 17.9141C97.1018 18.2326 97.2465 18.6487 97.2569 19.1623C97.2569 19.6246 97.1277 20.0407 96.8693 20.4106C96.6109 20.7804 96.244 21.0732 95.7686 21.2889C95.3035 21.4944 94.7661 21.5971 94.1563 21.5971Z" fill="white"/>
<path d="M107 16.9125C107 17.1796 106.984 17.4621 106.953 17.76H100.163C100.215 18.5922 100.499 19.2445 101.016 19.7171C101.543 20.1794 102.178 20.4106 102.923 20.4106C103.532 20.4106 104.039 20.2719 104.442 19.9945C104.855 19.7068 105.145 19.3267 105.31 18.8541H106.829C106.602 19.6657 106.147 20.3284 105.465 20.842C104.783 21.3454 103.935 21.5971 102.923 21.5971C102.116 21.5971 101.393 21.4173 100.752 21.0578C100.122 20.6982 99.6256 20.1897 99.2639 19.5322C98.9021 18.8644 98.7213 18.0939 98.7213 17.2207C98.7213 16.3475 98.897 15.5821 99.2484 14.9246C99.5997 14.2671 100.091 13.7637 100.721 13.4144C101.362 13.0549 102.096 12.8751 102.923 12.8751C103.729 12.8751 104.442 13.0497 105.062 13.399C105.682 13.7483 106.157 14.2312 106.488 14.8476C106.829 15.4537 107 16.142 107 16.9125ZM105.542 16.6197C105.542 16.0855 105.424 15.6283 105.186 15.2482C104.948 14.8578 104.623 14.565 104.209 14.3698C103.806 14.1644 103.357 14.0616 102.86 14.0616C102.147 14.0616 101.538 14.2877 101.031 14.7397C100.535 15.1917 100.251 15.8184 100.179 16.6197H105.542Z" fill="white"/>
<path d="M19.1028 23.179H26.0244C27.5152 23.179 28.6866 21.8301 28.6866 20.2563C28.6866 18.6825 27.5152 17.3336 26.0244 17.3336C25.492 17.3336 24.9595 17.3336 24.4271 17.3336C26.5568 12.4999 25.492 1.8208 15.9082 1.8208C9.51894 1.8208 6.32434 5.75521 6.32434 13.7364H5.25947C2.91676 13.7364 1 15.8723 1 18.4577C1 21.0432 2.91676 23.179 5.25947 23.179H10.5838H19.1028Z" stroke="white" stroke-width="2" stroke-linecap="round" stroke-linejoin="round"/>
<path d="M15.8549 12.3453L14.0732 12.9405L13.1864 10.2862L14.9406 9.7002C15.3043 9.57868 15.691 9.60375 16.0309 9.76959L16.031 9.76965C16.3709 9.93528 16.6215 10.2208 16.7397 10.5746C16.8579 10.9282 16.8291 11.3068 16.657 11.6435L16.6569 11.6437C16.4894 11.9724 16.2062 12.2203 15.8549 12.3453ZM11.9536 10.6974L12.3139 10.5771L14.5074 17.1431L14.1472 17.2634C13.9103 17.3425 13.7743 17.599 13.8554 17.842C13.9366 18.0849 14.1995 18.2081 14.4363 18.129L15.9869 17.611L16.1036 17.9602C16.1848 18.2032 16.4476 18.3264 16.6845 18.2472C16.9214 18.1681 17.0574 17.9117 16.9763 17.6687L16.8596 17.3194L17.1901 17.209L17.3068 17.5583C17.3879 17.8012 17.6508 17.9244 17.8877 17.8453C18.125 17.766 18.2601 17.5093 18.1791 17.2668L18.0623 16.9172C19.3723 16.4551 20.0872 15.0415 19.6498 13.7322C19.3247 12.759 18.4556 12.1226 17.4873 12.0317C17.7492 11.5053 17.8122 10.8821 17.6121 10.2831C17.2797 9.28829 16.3283 8.67663 15.3215 8.71293L15.1738 8.27092L15.1738 8.27088C15.0927 8.02846 14.8303 7.90491 14.5932 7.98412C14.3566 8.06318 14.2202 8.31947 14.3014 8.56237L14.4184 8.91251L14.0879 9.02292L13.9709 8.67283C13.9709 8.67282 13.9709 8.6728 13.9709 8.67279C13.8897 8.42985 13.6267 8.30702 13.3901 8.38607C13.1534 8.46513 13.0171 8.72142 13.0982 8.96432L13.2152 9.31446L12.7701 9.46316L12.7699 9.46259L12.5328 9.54181L11.6645 9.8319C11.4276 9.91104 11.2916 10.1675 11.3727 10.4104C11.4539 10.6534 11.7167 10.7766 11.9536 10.6974ZM18.6827 15.2509L18.6827 15.2509C18.4856 15.6374 18.1485 15.9267 17.7313 16.066L15.3798 16.8516L14.3624 13.8063L16.1166 13.2203C16.1286 13.2163 16.1401 13.2121 16.1485 13.209L16.7137 13.0202C17.1308 12.8808 17.5742 12.9098 17.9642 13.1001L17.9643 13.1001C18.3542 13.2902 18.6419 13.6178 18.7774 14.0236C18.9131 14.4297 18.8801 14.8642 18.6827 15.2509Z" fill="white" stroke="white" stroke-width="0.5"/>
</svg>
