<svg width="18" height="18" viewBox="0 0 16 16" fill="none" xmlns="http://www.w3.org/2000/svg">
<mask id="path-1-inside-1_1_441" fill="white">
<path d="M1.13417 7.16535C1.54593 4.8298 3.19469 2.91765 5.37697 2.12978L5.27451 2.30732C5.13165 2.55464 5.21632 2.87091 5.46364 3.01377C5.54513 3.06079 5.63401 3.0832 5.72178 3.0832C5.90043 3.0832 6.07424 2.99046 6.17001 2.82464L6.88294 1.5904C6.95154 1.4716 6.97023 1.33046 6.93472 1.19801C6.89921 1.0655 6.81261 0.952558 6.69381 0.883954L5.45923 0.17096C5.2117 0.0280993 4.89557 0.112906 4.75278 0.360154C4.60999 0.607472 4.69466 0.923737 4.94198 1.06653L5.07077 1.14092C2.52279 2.04304 0.595062 4.26669 0.115734 6.98574C-0.116208 8.29989 0.0018999 9.65424 0.457234 10.9025C0.533767 11.1123 0.731924 11.2425 0.943113 11.2425C1.00193 11.2425 1.06184 11.2323 1.12024 11.211C1.38859 11.1131 1.52676 10.8163 1.42885 10.548C1.03571 9.47043 0.933805 8.30079 1.13417 7.16535Z"/>
</mask>
<path d="M1.13417 7.16535C1.54593 4.8298 3.19469 2.91765 5.37697 2.12978L5.27451 2.30732C5.13165 2.55464 5.21632 2.87091 5.46364 3.01377C5.54513 3.06079 5.63401 3.0832 5.72178 3.0832C5.90043 3.0832 6.07424 2.99046 6.17001 2.82464L6.88294 1.5904C6.95154 1.4716 6.97023 1.33046 6.93472 1.19801C6.89921 1.0655 6.81261 0.952558 6.69381 0.883954L5.45923 0.17096C5.2117 0.0280993 4.89557 0.112906 4.75278 0.360154C4.60999 0.607472 4.69466 0.923737 4.94198 1.06653L5.07077 1.14092C2.52279 2.04304 0.595062 4.26669 0.115734 6.98574C-0.116208 8.29989 0.0018999 9.65424 0.457234 10.9025C0.533767 11.1123 0.731924 11.2425 0.943113 11.2425C1.00193 11.2425 1.06184 11.2323 1.12024 11.211C1.38859 11.1131 1.52676 10.8163 1.42885 10.548C1.03571 9.47043 0.933805 8.30079 1.13417 7.16535Z" stroke="white" stroke-width="2" mask="url(#path-1-inside-1_1_441)"/>
<mask id="path-2-inside-2_1_441" fill="white">
<path d="M13.3514 12.4593C13.1327 12.2755 12.8066 12.3038 12.6228 12.5224C11.1185 14.312 8.75591 15.172 6.45628 14.7661C5.34008 14.5693 4.29854 14.0852 3.43179 13.3739H3.59817C3.88382 13.3739 4.11528 13.1424 4.11528 12.8568C4.11528 12.5712 3.88382 12.3397 3.59817 12.3397H2.22148C2.08861 12.3272 1.95099 12.3656 1.84068 12.4582C1.73312 12.5483 1.67182 12.673 1.65872 12.8024C1.65865 12.8029 1.65858 12.8033 1.65851 12.8038C1.65851 12.8039 1.65851 12.8041 1.65851 12.8042C1.65707 12.819 1.65638 12.8339 1.65624 12.8488C1.65617 12.8514 1.65583 12.8539 1.65583 12.8565L1.65527 14.2817C1.65514 14.5673 1.88659 14.7989 2.17218 14.799H2.17239C2.4579 14.799 2.68936 14.5676 2.6895 14.2821L2.68957 14.102C3.70966 14.9645 4.94762 15.5502 6.27667 15.7846C6.71284 15.8615 7.15086 15.8992 7.58627 15.8992C9.80786 15.8992 11.9586 14.9198 13.4145 13.1879C13.5983 12.9693 13.57 12.6431 13.3514 12.4593Z"/>
</mask>
<path d="M13.3514 12.4593C13.1327 12.2755 12.8066 12.3038 12.6228 12.5224C11.1185 14.312 8.75591 15.172 6.45628 14.7661C5.34008 14.5693 4.29854 14.0852 3.43179 13.3739H3.59817C3.88382 13.3739 4.11528 13.1424 4.11528 12.8568C4.11528 12.5712 3.88382 12.3397 3.59817 12.3397H2.22148C2.08861 12.3272 1.95099 12.3656 1.84068 12.4582C1.73312 12.5483 1.67182 12.673 1.65872 12.8024C1.65865 12.8029 1.65858 12.8033 1.65851 12.8038C1.65851 12.8039 1.65851 12.8041 1.65851 12.8042C1.65707 12.819 1.65638 12.8339 1.65624 12.8488C1.65617 12.8514 1.65583 12.8539 1.65583 12.8565L1.65527 14.2817C1.65514 14.5673 1.88659 14.7989 2.17218 14.799H2.17239C2.4579 14.799 2.68936 14.5676 2.6895 14.2821L2.68957 14.102C3.70966 14.9645 4.94762 15.5502 6.27667 15.7846C6.71284 15.8615 7.15086 15.8992 7.58627 15.8992C9.80786 15.8992 11.9586 14.9198 13.4145 13.1879C13.5983 12.9693 13.57 12.6431 13.3514 12.4593Z" stroke="white" stroke-width="2" mask="url(#path-2-inside-2_1_441)"/>
<mask id="path-3-inside-3_1_441" fill="white">
<path d="M15.9304 9.82428C15.7877 9.57697 15.4713 9.49223 15.224 9.63502L15.0539 9.7332C15.061 9.69666 15.0692 9.66033 15.0757 9.62371C15.4279 7.62546 14.9811 5.60982 13.8173 3.94789C12.6536 2.28596 10.9124 1.17679 8.91451 0.824811C8.6332 0.775306 8.36499 0.963121 8.31555 1.24436C8.26598 1.5256 8.45379 1.79381 8.73503 1.84338C10.4609 2.14745 11.9651 3.10555 12.9703 4.54119C13.9734 5.97387 14.3598 7.71095 14.059 9.43362L13.9832 9.30242C13.8404 9.0551 13.5242 8.97022 13.2769 9.11301C13.0295 9.25574 12.9447 9.572 13.0875 9.81939L13.8001 11.0542C13.8687 11.173 13.9817 11.2596 14.1142 11.2952C14.1582 11.3069 14.2032 11.3128 14.248 11.3128C14.338 11.3128 14.4273 11.2893 14.5066 11.2435L15.7411 10.5307C15.9885 10.3879 16.0732 10.0716 15.9304 9.82428Z"/>
</mask>
<path d="M15.9304 9.82428C15.7877 9.57697 15.4713 9.49223 15.224 9.63502L15.0539 9.7332C15.061 9.69666 15.0692 9.66033 15.0757 9.62371C15.4279 7.62546 14.9811 5.60982 13.8173 3.94789C12.6536 2.28596 10.9124 1.17679 8.91451 0.824811C8.6332 0.775306 8.36499 0.963121 8.31555 1.24436C8.26598 1.5256 8.45379 1.79381 8.73503 1.84338C10.4609 2.14745 11.9651 3.10555 12.9703 4.54119C13.9734 5.97387 14.3598 7.71095 14.059 9.43362L13.9832 9.30242C13.8404 9.0551 13.5242 8.97022 13.2769 9.11301C13.0295 9.25574 12.9447 9.572 13.0875 9.81939L13.8001 11.0542C13.8687 11.173 13.9817 11.2596 14.1142 11.2952C14.1582 11.3069 14.2032 11.3128 14.248 11.3128C14.338 11.3128 14.4273 11.2893 14.5066 11.2435L15.7411 10.5307C15.9885 10.3879 16.0732 10.0716 15.9304 9.82428Z" stroke="white" stroke-width="2" mask="url(#path-3-inside-3_1_441)"/>
</svg>
